<svg width="54" height="54" viewBox="0 0 54 54" fill="none" xmlns="http://www.w3.org/2000/svg">
<path d="M26.439 18.2338C26.2286 15.5688 25.6675 12.7636 24.826 9.81818C23.9844 6.8026 23.4935 4.90909 23.4935 3.92727C23.4935 1.47273 24.826 0 27 0C29.174 0 30.5065 1.47273 30.5065 3.92727C30.5065 4.90909 29.9455 7.01299 29.0338 10.3091C28.1221 13.6052 27.561 16.2701 27.4208 18.2338H26.439ZM33.5221 21.1091L32.8208 20.4078C33.8026 19.2857 35.9766 16.3403 36.6779 14.9377L38.0805 12.2727C39.974 8.62598 41.8675 6.8026 43.6909 6.8026C45.374 6.8026 47.1974 8.76623 47.1974 10.5195C47.1974 12.1325 45.3039 13.9558 41.5169 15.9896C37.6597 18.0234 34.9948 19.7766 33.5221 21.1091ZM20.4078 20.9688C19.2857 20.0571 17.5325 18.6545 14.8675 17.2519L12.2727 15.8493C8.62597 13.8857 6.8026 12.0623 6.8026 10.239C6.8026 8.6961 8.6961 6.8026 10.3091 6.8026C11.9922 6.8026 13.8156 8.55584 15.7091 12.1325C17.6026 15.639 19.426 18.374 21.1091 20.3377L20.4078 20.9688ZM27.0701 33.9429C23.213 33.9429 20.0571 30.9273 20.0571 27.0701C20.0571 23.213 23.213 20.0571 27.0701 20.0571C30.9273 20.0571 33.9429 23.213 33.9429 27.0701C33.9429 30.9273 30.9273 33.9429 27.0701 33.9429ZM3.78701 30.5065C1.4026 30.5065 0 29.2442 0 27C0 24.826 1.33247 23.4935 3.78701 23.4935C4.76883 23.4935 6.31169 23.774 8.41558 24.4052C12.6935 25.6675 16.2 26.2987 18.0935 26.439V27.4208C16.1299 27.561 13.4649 28.0519 10.1688 29.0338C6.87273 30.0156 4.76883 30.5065 3.78701 30.5065ZM50.0727 30.5065C49.0909 30.5065 46.987 29.9455 43.6909 29.0338C40.3247 28.1221 37.7299 27.561 35.7662 27.4208V26.439C38.4312 26.2286 41.2364 25.7377 44.1117 24.826C47.0571 23.9143 49.0208 23.4935 50.0727 23.4935C52.5273 23.4935 54 24.826 54 27C54 29.2442 52.5273 30.5065 50.0727 30.5065ZM43.6909 47.1974C41.8675 47.1974 40.0442 45.3039 38.0805 41.6571L36.6779 39.0623C35.2052 36.3273 33.8026 34.574 32.8909 33.5221L33.5922 32.8208C34.4338 33.5922 37.6597 35.9065 39.0623 36.6779L41.6571 38.0805C45.374 40.1143 47.1974 41.8675 47.1974 43.6208C47.1974 45.3039 45.1636 47.1974 43.6909 47.1974ZM10.3091 47.1974C8.6961 47.1974 6.8026 45.374 6.8026 43.761C6.8026 41.9377 8.62597 40.1143 12.2727 38.1507L14.8675 36.748C16.2701 35.9766 18.0935 34.7143 20.3377 32.8909L20.9688 33.5922C20.0571 34.574 17.9532 37.8 17.2519 39.1325L15.8494 41.7974C13.9558 45.374 12.0623 47.1974 10.3091 47.1974ZM27 54C24.826 54 23.4935 52.6675 23.4935 50.213C23.4935 49.3013 23.9844 47.3377 24.826 44.2519C25.6675 41.2364 26.2286 38.4312 26.439 35.9065H27.4208C27.561 37.8701 28.052 40.4649 29.0338 43.8312C30.0156 47.1273 30.5065 49.2312 30.5065 50.213C30.5065 52.5974 29.174 54 27 54Z" fill="#FE5C43"/>
</svg>
