<svg width="35" height="35" viewBox="0 0 35 35" fill="none" xmlns="http://www.w3.org/2000/svg">
<g clip-path="url(#clip0_367_147)">
<path d="M17.4996 33.0556C14.9211 33.0556 12.4482 32.0313 10.6249 30.208C8.80165 28.3847 7.77734 25.9118 7.77734 23.3333V11.6667C7.77734 9.08819 8.80165 6.6153 10.6249 4.79203C12.4482 2.96876 14.9211 1.94446 17.4996 1.94446C20.0781 1.94446 22.5509 2.96876 24.3742 4.79203C26.1975 6.6153 27.2218 9.08819 27.2218 11.6667V23.3333C27.2218 24.6101 26.9703 25.8743 26.4817 27.0539C25.9931 28.2334 25.277 29.3052 24.3742 30.208C23.4714 31.1108 22.3997 31.8269 21.2201 32.3155C20.0405 32.8041 18.7763 33.0556 17.4996 33.0556ZM17.4996 3.8889C15.4368 3.8889 13.4585 4.70834 11.9998 6.16696C10.5412 7.62558 9.72179 9.60389 9.72179 11.6667V23.3333C9.72179 25.3961 10.5412 27.3745 11.9998 28.8331C13.4585 30.2917 15.4368 31.1111 17.4996 31.1111C19.5624 31.1111 21.5407 30.2917 22.9993 28.8331C24.4579 27.3745 25.2773 25.3961 25.2773 23.3333V11.6667C25.2773 9.60389 24.4579 7.62558 22.9993 6.16696C21.5407 4.70834 19.5624 3.8889 17.4996 3.8889Z" fill="white"/>
<path d="M17.4996 14.5833C17.2417 14.5833 16.9944 14.4809 16.8121 14.2986C16.6298 14.1162 16.5273 13.869 16.5273 13.6111V9.72222C16.5273 9.46437 16.6298 9.21708 16.8121 9.03476C16.9944 8.85243 17.2417 8.75 17.4996 8.75C17.7574 8.75 18.0047 8.85243 18.187 9.03476C18.3694 9.21708 18.4718 9.46437 18.4718 9.72222V13.6111C18.4718 13.869 18.3694 14.1162 18.187 14.2986C18.0047 14.4809 17.7574 14.5833 17.4996 14.5833Z" fill="white"/>
</g>
<defs>
<clipPath id="clip0_367_147">
<rect width="35" height="35" fill="white"/>
</clipPath>
</defs>
</svg>
